<svg width="77" height="79" viewBox="0 0 77 79" fill="none" xmlns="http://www.w3.org/2000/svg">
<path d="M5.86478 20.1357L1.14208 45.3139C0.842151 46.9178 0.915809 48.569 1.35726 50.1379C1.79872 51.7068 2.59593 53.1506 3.68624 54.3556L22.1642 74.7471C23.5278 76.2537 25.2973 77.3288 27.258 77.842C29.2187 78.3552 31.2863 78.2845 33.2101 77.6384L60.0255 68.6127C61.4845 68.1217 62.8188 67.3134 63.9334 66.2453C65.048 65.1772 65.9155 63.8755 66.4744 62.4327L76.0312 37.825C76.7374 36.0117 76.9306 34.0378 76.5895 32.1227C76.2483 30.2075 75.3862 28.4261 74.0988 26.9763L53.8879 4.1406C52.4992 2.57517 50.6767 1.46394 48.6542 0.949486C46.6317 0.435027 44.5014 0.540802 42.5367 1.25324L12.6258 12.1606C10.9068 12.7824 9.37847 13.8456 8.19245 15.2446C7.00644 16.6436 6.204 18.3297 5.86478 20.1357Z" fill="#FFF38F"/>
</svg>
