<svg width="80" height="74" viewBox="0 0 80 74" fill="none" xmlns="http://www.w3.org/2000/svg">
<path d="M25.2552 72.6362L50.8524 73.6505C52.4828 73.7142 54.1059 73.4014 55.594 72.7367C57.0821 72.0719 58.3947 71.0734 59.4285 69.8196L76.9188 48.5749C78.2113 47.0068 79.0179 45.0999 79.2408 43.0855C79.4637 41.071 79.0933 39.0356 78.1745 37.2262L65.3483 12.0067C64.6506 10.6345 63.657 9.43184 62.4383 8.48427C61.2196 7.5367 59.8056 6.86747 58.297 6.52417L32.5618 0.644189C30.6651 0.209003 28.6841 0.304613 26.8389 0.920399C24.9936 1.53618 23.3563 2.64803 22.109 4.13243L2.45224 27.4467C1.10519 29.0481 0.270559 31.0128 0.0554265 33.0886C-0.159706 35.1644 0.254471 37.2567 1.24482 39.0971L16.3824 67.1058C17.2473 68.7161 18.5213 70.0738 20.0778 71.0439C21.6343 72.0141 23.4191 72.563 25.2552 72.6362Z" fill="#FFF38F"/>
</svg>
