<svg width="1440" height="632" viewBox="0 0 1440 632" fill="none" xmlns="http://www.w3.org/2000/svg">
<path d="M1440.47 631.242V1H1439.41V631.242" fill="#FFF38F"/>
<path d="M1320.01 631.358L1440.46 90.5596L1439.42 90.3267L1318.98 631.136" fill="#FFF38F"/>
<path d="M1199.51 631.496L1440.41 180.13L1439.47 179.632L1198.58 630.998" fill="#FFF38F"/>
<path d="M1078.97 631.623L1440.31 269.7L1439.57 268.948L1078.22 630.871" fill="#FFF38F"/>
<path d="M958.4 631.708L1440.21 359.228L1439.68 358.307L957.881 630.786" fill="#FFF38F"/>
<path d="M837.851 631.75L1440.09 448.713L1439.78 447.708L837.544 630.744" fill="#FFF38F"/>
<path d="M0.000889421 0.508362V631H1.06006V0.508362" fill="#FFF38F"/>
<path d="M120.513 0.391663L0.0114822 541.405L1.04945 541.638L121.541 0.614075" fill="#FFF38F"/>
<path d="M241.058 0.25412L0.0649109 451.799L0.996979 452.297L241.99 0.751953" fill="#FFF38F"/>
<path d="M361.644 0.126953L0.160126 362.193L0.901581 362.945L362.396 0.878998" fill="#FFF38F"/>
<path d="M482.262 0.042511L0.266174 272.63L0.795746 273.552L482.781 0.963989" fill="#FFF38F"/>
<path d="M602.859 -0.00012207L0.382751 183.109L0.689941 184.115L603.167 1.00609" fill="#FFF38F"/>
</svg>
