<svg width="768" height="536" viewBox="0 0 768 536" fill="none" xmlns="http://www.w3.org/2000/svg">
<path d="M767.51 535.876V66H766.721V535.876" fill="#FFF38F"/>
<path d="M677.699 535.962L767.503 132.771L766.73 132.597L676.934 535.796" fill="#FFF38F"/>
<path d="M587.863 536.065L767.463 199.55L766.768 199.179L587.168 535.694" fill="#FFF38F"/>
<path d="M497.996 536.16L767.393 266.329L766.84 265.769L497.436 535.599" fill="#FFF38F"/>
<path d="M408.105 536.223L767.313 333.076L766.919 332.389L407.718 535.536" fill="#FFF38F"/>
<path d="M318.229 536.254L767.226 399.792L766.997 399.042L318 535.505" fill="#FFF38F"/>
<path d="M-0.000599027 0.379089V470.441H0.789062V0.379089" fill="#FFF38F"/>
<path d="M89.8473 0.291962L0.00753021 403.643L0.781387 403.817L90.6133 0.457794" fill="#FFF38F"/>
<path d="M179.721 0.189362L0.049408 336.838L0.744324 337.209L180.416 0.560516" fill="#FFF38F"/>
<path d="M269.622 0.0947266L0.118378 270.033L0.671143 270.593L270.183 0.655426" fill="#FFF38F"/>
<path d="M359.55 0.0319977L0.198303 203.259L0.59314 203.946L359.937 0.718994" fill="#FFF38F"/>
<path d="M449.46 -0.000244141L0.285187 136.516L0.514221 137.267L449.689 0.749954" fill="#FFF38F"/>
</svg>
