<svg width="375" height="526" viewBox="0 0 375 526" fill="none" xmlns="http://www.w3.org/2000/svg">
<path d="M323.86 526.051L375.996 245.467L375.547 245.346L323.415 525.936" fill="#FFF38F"/>
<path d="M271.704 526.122L375.972 291.938L375.569 291.68L271.301 525.864" fill="#FFF38F"/>
<path d="M219.532 526.189L375.932 338.411L375.612 338.021L219.207 525.799" fill="#FFF38F"/>
<path d="M167.345 526.232L375.886 384.861L375.657 384.383L167.12 525.755" fill="#FFF38F"/>
<path d="M115.167 526.255L375.835 431.289L375.702 430.767L115.034 525.733" fill="#FFF38F"/>
<path d="M-0.00106174 0.21756V270H0.452148V0.21756" fill="#FFF38F"/>
<path d="M51.5663 0.16777L0.00453186 231.663L0.448669 231.763L52.0059 0.262955" fill="#FFF38F"/>
<path d="M103.147 0.108612L0.0281525 193.321L0.426979 193.534L103.546 0.32164" fill="#FFF38F"/>
<path d="M154.745 0.0541382L0.0685272 154.979L0.385773 155.301L155.066 0.375931" fill="#FFF38F"/>
<path d="M206.356 0.0183182L0.113693 116.656L0.340302 117.051L206.578 0.412613" fill="#FFF38F"/>
<path d="M257.958 -0.000267029L0.163391 78.3507L0.29483 78.7812L258.09 0.43029" fill="#FFF38F"/>
</svg>
